<svg width="1176" height="1476" viewBox="0 0 1176 1476" fill="none" xmlns="http://www.w3.org/2000/svg">
<path fill-rule="evenodd" clip-rule="evenodd" d="M1038.35 7L1037.36 8.69107C1083.74 46.5244 1109.47 84.5835 1121.63 120.187C1133.79 155.788 1132.4 189 1124.45 217.18C1116.5 245.372 1101.98 268.523 1087.89 283.966C1080.85 291.69 1073.93 297.458 1068.04 300.965C1065.09 302.719 1062.42 303.889 1060.14 304.468C1057.85 305.049 1056.04 305.008 1054.73 304.47C1044.87 300.411 1038.2 293.035 1033.87 285.413C1029.52 277.782 1027.56 269.959 1027.07 265.131L1027.07 265.078L1027.06 265.025C1014.54 205.435 996.024 162.442 977.943 132.898C959.877 103.381 942.206 87.231 931.328 81.4147L930.11 82.9377C952.268 108.533 996.59 180.679 996.823 264.566C989.424 267.53 980.637 268.087 971.184 266.955C961.478 265.791 951.135 262.853 940.997 258.986C920.717 251.25 901.372 239.841 889.769 231.697L887.039 229.781L888.278 232.876C893.37 245.601 916.351 274.728 967.75 291.456C993.316 299.777 1008.24 306.443 1016.5 311.37C1020.64 313.838 1023.05 315.833 1024.29 317.332C1025.46 318.749 1025.39 319.426 1025.29 319.652L963.985 380.934L945.181 330.326L943.259 330.671V401.071H876.577C873.6 389.255 868.856 361.042 872.326 336.761L870.499 336.101C866.809 342.095 858.878 356.034 854.878 366.663C854.812 364.292 854.858 360.786 854.992 356.381C855.317 345.635 856.153 329.706 857.083 312.319L857.29 308.453L857.29 308.449C859.076 275.121 861.091 237.504 860.461 221.276C879.459 213.65 916.403 180.531 919.947 106.133L918.013 105.781C912.823 121.839 902.885 146.076 889.959 166.575C883.496 176.824 876.309 186.102 868.624 192.954C860.98 199.77 852.918 204.121 844.643 204.737C843.241 204.376 841.229 203.113 838.697 200.863C836.123 198.576 833.128 195.379 829.858 191.405C823.32 183.46 815.733 172.481 808.258 159.651C793.302 133.98 778.858 101.008 774.122 70.2396L772.174 70.1774C766.653 95.2607 770.406 161.688 828.732 228.466C830.689 245.775 831.843 272.216 828.996 295.674C827.563 307.476 825.124 318.468 821.298 327.148C817.467 335.841 812.311 342.073 805.528 344.616C801.3 346.201 795.506 346.389 788.584 345.073C781.68 343.761 773.736 340.968 765.267 336.689C748.33 328.131 729.372 313.671 712.529 293.412C678.861 252.916 653.654 189.259 669.963 103.296L668.105 102.663C651.66 135.041 632.667 223.433 686.897 319.737C671 325.164 630.841 317.63 592.505 240.989L590.627 241.466C591.631 271.077 614.681 335.081 698.513 355.432C709.65 358.135 720.086 360.634 729.849 362.972L729.854 362.973L729.855 362.973C765.776 371.574 792.583 377.993 811.698 384.411C823.851 388.491 832.8 392.542 838.974 397.097C845.088 401.607 848.441 406.58 849.521 412.557C849.461 415.836 845.901 423.548 830.121 424.832C818.79 411.183 786.522 384.711 744.872 384.711H743.911L743.881 385.671C743.374 401.88 754.438 441.234 802.073 471.131C806.097 483.529 801.192 514.175 746.008 536.482C742.471 537.747 737.378 540.173 733.592 543.383C729.848 546.557 727.021 550.841 729.081 555.647C730.263 558.404 732.773 561.757 735.802 565.227C738.851 568.72 742.5 572.414 746.04 575.86C748.379 578.136 750.684 580.317 752.739 582.262L752.743 582.265C753.023 582.531 753.299 582.792 753.57 583.048C754.313 583.752 755.018 584.42 755.671 585.045C756.996 586.311 758.111 587.397 758.938 588.256C759.352 588.685 759.685 589.049 759.933 589.343C760.195 589.654 760.315 589.834 760.352 589.908C760.877 590.957 760.965 591.971 761.091 593.401C761.107 593.595 761.125 593.796 761.144 594.005C761.156 594.133 761.169 594.263 761.182 594.397C761.376 596.337 761.771 598.694 763.328 601.807C764.966 605.081 767.461 606.729 770.67 607.531C773.765 608.304 777.586 608.304 781.96 608.304H782.07C784.353 608.304 790.546 607.834 798.54 607.185C799.566 607.102 800.623 607.016 801.706 606.927C802.965 606.824 804.26 606.717 805.585 606.609L805.591 606.608C812.033 606.078 819.164 605.492 826.224 604.955C835.987 604.211 845.595 603.562 853.038 603.284C856.761 603.144 859.925 603.099 862.287 603.179C863.47 603.219 864.431 603.29 865.151 603.392C865.512 603.443 865.795 603.499 866.007 603.558C866.071 603.575 866.126 603.593 866.172 603.609C866.201 603.619 866.227 603.628 866.249 603.637C866.308 603.661 866.33 603.676 866.33 603.676C868.533 605.143 884.866 616.645 901.198 630.745C909.364 637.794 917.507 645.474 923.878 652.859C929.986 659.938 934.353 666.619 935.667 672.141C935.265 672.042 934.683 671.799 933.91 671.37C932.172 670.408 929.795 668.697 926.96 666.447C921.306 661.96 914.01 655.474 906.706 648.961L905.865 648.212C898.858 641.963 891.903 635.761 886.502 631.407C883.7 629.149 881.273 627.352 879.453 626.305C878.56 625.792 877.72 625.403 877.011 625.275C876.653 625.21 876.23 625.193 875.824 625.346C875.372 625.516 875.047 625.858 874.881 626.294L874.879 626.3C865.952 650.095 859.045 666.316 836.415 676.293C813.608 686.348 774.771 690.086 701.749 688.124C563.373 684.406 466.957 685.89 396.191 695.942C325.408 705.997 280.203 724.635 244.307 755.278C227.62 768.434 197.788 813.623 209.735 890.056L209.814 890.561L210.271 890.79C211.971 891.639 213.797 890.76 215.381 889.438C217.031 888.06 218.819 885.882 220.67 883.224C224.383 877.891 228.519 870.376 232.5 862.734C234.447 858.996 236.345 855.251 238.146 851.699L238.147 851.697C240.054 847.934 241.851 844.388 243.48 841.298C245.054 838.311 246.441 835.808 247.575 834.023C247.854 833.583 248.114 833.193 248.354 832.854L245.435 1037.07C241.976 1062.07 216.771 1119.99 143.377 1150.76L143.355 1150.77L143.333 1150.78C137.524 1153.55 128.998 1159.21 122.211 1167.2C115.419 1175.2 110.302 1185.63 111.528 1197.88C111.881 1201.4 110.996 1207.18 109.061 1214.74C107.136 1222.26 104.206 1231.42 100.561 1241.67C93.2715 1262.16 83.1451 1286.91 72.5477 1311.35C51.3403 1360.26 28.3047 1407.78 22.3964 1417.38L22.3338 1417.48L22.2972 1417.6L7.41815 1463.7L7 1465H8.36203H84.2451H85.5836L85.1939 1463.72C83.4605 1458.03 80.8604 1449.12 78.6946 1440.89C77.6115 1436.77 76.6394 1432.84 75.9387 1429.57C75.3245 1426.7 74.935 1424.41 74.8427 1422.97C74.9026 1422.53 75.0139 1421.96 75.18 1421.23C75.5169 1419.77 76.0642 1417.76 76.8096 1415.29C78.2994 1410.35 80.5656 1403.58 83.4794 1395.53C89.3065 1379.45 97.7122 1358.33 107.65 1336.7C117.59 1315.06 129.05 1292.94 140.985 1274.85C152.95 1256.71 165.283 1242.8 176.915 1237.35C193.755 1229.46 221.743 1208.93 249.727 1186.35C277.656 1163.83 305.688 1139.18 322.837 1122.79C388.33 1100.15 432.26 1050.87 448.614 1025.38C443.443 1053.61 413.309 1116.36 324.739 1174.64L324.189 1175L324.31 1175.65C331.267 1212.91 360.032 1311.95 419.518 1410.74V1467.65V1468.64H420.51H506.809H509.371L507.476 1466.92C474.433 1436.84 409.231 1329.49 412.557 1220.66C449.936 1198.15 536.567 1135.59 588.896 1062.3C615.015 1079.32 684.599 1106.68 761.518 1084.21L761.242 1083.26L761.607 1084.18C762.039 1084 762.57 1084.01 763.266 1084.31C763.975 1084.62 764.789 1085.21 765.687 1086.08C767.48 1087.81 769.428 1090.5 771.367 1093.66C775.234 1099.97 778.931 1107.95 781.152 1113.38L781.161 1113.4L781.172 1113.42C846.536 1252.41 854.95 1364.32 851.022 1402.85L839.138 1468.89L838.818 1470.13H840.098H840.197H840.296H840.396H840.496H840.596H840.697H840.799H840.9H841.002H841.104H841.207H841.31H841.413H841.517H841.621H841.725H841.829H841.934H842.04H842.145H842.251H842.358H842.464H842.571H842.678H842.786H842.894H843.002H843.11H843.219H843.328H843.438H843.547H843.657H843.768H843.878H843.989H844.1H844.212H844.323H844.435H844.548H844.66H844.773H844.886H844.999H845.113H845.227H845.341H845.455H845.57H845.685H845.8H845.916H846.031H846.147H846.263H846.38H846.496H846.613H846.73H846.848H846.965H847.083H847.201H847.319H847.438H847.556H847.675H847.794H847.913H848.033H848.153H848.273H848.393H848.513H848.634H848.754H848.875H848.996H849.118H849.239H849.361H849.482H849.605H849.727H849.849H849.972H850.094H850.217H850.34H850.463H850.587H850.71H850.834H850.958H851.082H851.206H851.33H851.454H851.579H851.704H851.828H851.953H852.078H852.204H852.329H852.454H852.58H852.706H852.831H852.958H853.083H853.21H853.336H853.462H853.589H853.715H853.842H853.969H854.096H854.223H854.35H854.477H854.604H854.731H854.859H854.986H855.114H855.241H855.369H855.497H855.625H855.753H855.88H856.008H856.137H856.265H856.393H856.521H856.649H856.778H856.906H857.034H857.163H857.291H857.42H857.548H857.677H857.806H857.934H858.063H858.192H858.32H858.449H858.578H858.706H858.835H858.964H859.093H859.221H859.35H859.479H859.608H859.736H859.865H859.994H860.122H860.251H860.38H860.508H860.637H860.766H860.894H861.023H861.151H861.28H861.408H861.537H861.665H861.793H861.922H862.05H862.178H862.306H862.434H862.562H862.69H862.818H862.946H863.073H863.201H863.329H863.456H863.584H863.711H863.838H863.966H864.093H864.22H864.346H864.473H864.6H864.727H864.853H864.98H865.106H865.232H865.358H865.484H865.61H865.736H865.862H865.987H866.113H866.238H866.363H866.488H866.613H866.738H866.863H866.987H867.112H867.236H867.36H867.484H867.607H867.731H867.854H867.978H868.101H868.224H868.347H868.469H868.592H868.714H868.836H868.958H869.08H869.202H869.323H869.444H869.565H869.686H869.807H869.927H870.048H870.168H870.287H870.407H870.527H870.646H870.765H870.884H871.002H871.121H871.239H871.357H871.474H871.592H871.709H871.826H871.943H872.06H872.176H872.292H872.408H872.523H872.639H872.754H872.869H872.983H873.098H873.212H873.326H873.439H873.552H873.665H873.778H873.891H874.003H874.115H874.226H874.338H874.449H874.559H874.67H874.78H874.89H875H875.109H875.218H875.327H875.435H875.543H875.651H875.758H875.865H875.972H876.079H876.185H876.291H876.396H876.502H876.606H876.711H876.815H876.919H877.023H877.126H877.229H877.331H877.433H877.535H877.636H877.737H877.838H877.939H878.039H878.138H878.237H878.336H878.435H878.533H878.631H878.728H878.825H878.922H879.018H879.114H879.209H879.304H879.399H879.493H879.587H879.681H879.774H879.866H879.958H880.05H880.142H880.233H880.323H880.413H880.503H880.592H880.681H880.77H880.858H880.945H881.032H881.119H881.205H881.291H881.377H881.461H881.546H881.63H881.713H881.796H881.879H881.961H882.043H882.124H882.205H882.285H882.365H882.444H882.523H882.602H882.68H882.757H882.834H882.91H882.986H883.062H883.137H883.211H883.285H883.358H883.431H883.504H883.576H883.647H883.718H883.788H883.858H883.927H883.996H884.064H884.132H884.199H884.266H884.332H884.398H884.463H884.527H884.591H884.654H884.717H884.78H884.841H884.902H884.963H885.023H885.083H885.142H885.2H885.258H885.315H885.371H885.428H885.483H885.538H885.592H885.646H885.699H885.751H885.803H885.855H885.905H885.956H886.005H886.054H886.102H886.15H886.197H886.244H886.289H886.335H886.379H886.423H886.467H886.509H886.551H886.593H886.634H886.674H886.713H886.752H886.791H886.828H886.865H886.901H886.937H886.972H887.006H887.04H887.073H887.105H887.137H887.168H887.198H887.228H887.257H887.285H887.313H887.34H887.366H887.391H887.416H887.44H887.464H887.487H887.509H887.53H887.551H887.571H887.59H887.608H887.626H887.643H887.66H887.675H887.69H887.704H887.711H887.718H887.724H887.73H887.737H887.742H887.749H887.754H887.76H887.764H887.77H887.774H887.78H887.783H887.789H887.791H887.797H887.799H887.804H887.805H887.81H887.812H887.816H887.817H887.82H887.821H887.824H887.827H887.83H887.832L887.832 1468.15C888.038 1468.19 888.134 1468.32 888.134 1468.32L888.128 1468.31C888.117 1468.29 888.102 1468.27 888.083 1468.22C888.046 1468.15 887.996 1468.02 887.942 1467.82C887.78 1467.24 887.649 1466.35 887.556 1465.15C887.371 1462.79 887.351 1459.48 887.438 1455.77C887.61 1448.36 888.204 1419.46 888.699 1413.52L888.729 1413.16L888.518 1412.86L881.256 1402.7L873.831 1080.59C876.665 1076.7 879.621 1074.4 882.514 1073.19C885.468 1071.95 888.424 1071.83 891.232 1072.4C896.758 1073.53 901.682 1077.36 904.604 1080.68C908.132 1124.09 906.059 1317.37 904.575 1408.91L900.116 1469.03L899.994 1470.13H901.102H956.154H957.7L957.056 1468.72L940.788 1413.24L946.727 1260.37C959.141 1204.28 985.093 1088.54 989.836 1073.14C990.985 1069.4 993.751 1064.18 997.549 1058.13C1001.33 1052.1 1006.1 1045.31 1011.19 1038.44C1021.34 1024.75 1032.76 1010.82 1040.19 1002.15C1083.12 963.986 1097.95 928.516 1099.97 915.338L1099.99 915.253L1099.98 915.167C1098.99 868.562 1097.28 796.945 1095.37 733.556C1093.46 670.207 1091.35 614.982 1089.56 601.235C1088.65 594.234 1085.39 585.399 1080.76 575.748C1076.12 566.078 1070.08 555.512 1063.53 545.027C1050.53 524.205 1035.53 503.646 1025.59 490.96V476.88C1057.6 448.953 1074.97 423.285 1083.65 402.481C1092.35 381.631 1092.35 365.609 1089.52 357.129L1089.23 356.278L1088.36 356.476C1065.12 361.721 1041.94 374.439 1023.87 386.362C1009.39 395.907 998.103 405.006 992.688 409.37L992.681 409.376C991.339 410.457 990.359 411.248 989.781 411.681C988.651 412.528 987.986 412.817 987.658 412.876C987.621 412.662 987.632 412.272 987.748 411.713C987.855 411.198 988.028 410.639 988.221 410.125C1010.35 393.697 1045.23 364.217 1078.33 328.895C1111.53 293.465 1143 252.077 1157.95 212.032C1172.91 171.966 1173.27 129.519 1167.67 92.774C1162.08 56.0303 1150.51 24.917 1141.54 7.46955L1139.68 8.12162C1149.64 56.7952 1149.2 103.239 1147.5 124.121C1119.45 53.7851 1063.4 16.818 1038.35 7ZM760.914 1082.32C761.956 1081.92 763.037 1082.05 764.054 1082.49C765.07 1082.93 766.082 1083.7 767.067 1084.65C769.04 1086.57 771.091 1089.42 773.058 1092.63C776.996 1099.05 780.734 1107.12 782.978 1112.6C848.498 1251.94 856.977 1364.25 852.988 1403.13L852.98 1403.2L852.961 1403.28L841.378 1468.14H841.413H841.517H841.621H841.725H841.829H841.934H842.04H842.145H842.251H842.358H842.464H842.571H842.678H842.786H842.894H843.002H843.11H843.219H843.328H843.438H843.547H843.657H843.768H843.878H843.989H844.1H844.212H844.323H844.435H844.548H844.66H844.773H844.886H844.999H845.113H845.227H845.341H845.455H845.57H845.685H845.8H845.916H846.031H846.147H846.263H846.38H846.496H846.613H846.73H846.848H846.965H847.083H847.201H847.319H847.438H847.556H847.675H847.794H847.913H848.033H848.153H848.273H848.393H848.513H848.634H848.754H848.875H848.996H849.118H849.239H849.361H849.482H849.605H849.727H849.849H849.972H850.094H850.217H850.34H850.463H850.587H850.71H850.834H850.958H851.082H851.206H851.33H851.454H851.579H851.704H851.828H851.953H852.078H852.204H852.329H852.454H852.58H852.706H852.831H852.958H853.083H853.21H853.336H853.462H853.589H853.715H853.842H853.969H854.096H854.223H854.35H854.477H854.604H854.731H854.859H854.986H855.114H855.241H855.369H855.497H855.625H855.753H855.88H856.008H856.137H856.265H856.393H856.521H856.649H856.778H856.906H857.034H857.163H857.291H857.42H857.548H857.677H857.806H857.934H858.063H858.192H858.32H858.449H858.578H858.706H858.835H858.964H859.093H859.221H859.35H859.479H859.608H859.736H859.865H859.994H860.122H860.251H860.38H860.508H860.637H860.766H860.894H861.023H861.151H861.28H861.408H861.537H861.665H861.793H861.922H862.05H862.178H862.306H862.434H862.562H862.69H862.818H862.946H863.073H863.201H863.329H863.456H863.584H863.711H863.838H863.966H864.093H864.22H864.346H864.473H864.6H864.727H864.853H864.98H865.106H865.232H865.358H865.484H865.61H865.736H865.862H865.987H866.113H866.238H866.363H866.488H866.613H866.738H866.863H866.987H867.112H867.236H867.36H867.484H867.607H867.731H867.854H867.978H868.101H868.224H868.347H868.469H868.592H868.714H868.836H868.958H869.08H869.202H869.323H869.444H869.565H869.686H869.807H869.927H870.048H870.168H870.287H870.407H870.527H870.646H870.765H870.884H871.002H871.121H871.239H871.357H871.474H871.592H871.709H871.826H871.943H872.06H872.176H872.292H872.408H872.523H872.639H872.754H872.869H872.983H873.098H873.212H873.326H873.439H873.552H873.665H873.778H873.891H874.003H874.115H874.226H874.338H874.449H874.559H874.67H874.78H874.89H875H875.109H875.218H875.327H875.435H875.543H875.651H875.758H875.865H875.972H876.079H876.185H876.291H876.396H876.502H876.606H876.711H876.815H876.919H877.023H877.126H877.229H877.331H877.433H877.535H877.636H877.737H877.838H877.939H878.039H878.138H878.237H878.336H878.435H878.533H878.631H878.728H878.825H878.922H879.018H879.114H879.209H879.304H879.399H879.493H879.587H879.681H879.774H879.866H879.958H880.05H880.142H880.233H880.323H880.413H880.503H880.592H880.681H880.77H880.858H880.945H881.032H881.119H881.205H881.291H881.377H881.461H881.546H881.63H881.713H881.796H881.879H881.961H882.043H882.124H882.205H882.285H882.365H882.444H882.523H882.602H882.68H882.757H882.834H882.91H882.986H883.062H883.137H883.211H883.285H883.358H883.431H883.504H883.576H883.647H883.718H883.788H883.858H883.927H883.996H884.064H884.132H884.199H884.266H884.332H884.398H884.463H884.527H884.591H884.654H884.717H884.78H884.841H884.902H884.963H885.023H885.083H885.142H885.2H885.258H885.315H885.371H885.428H885.483H885.538H885.592H885.646H885.699H885.751H885.803H885.855H885.905H885.956H885.976C885.792 1467.4 885.666 1466.42 885.578 1465.31C885.385 1462.84 885.368 1459.45 885.455 1455.73C885.625 1448.41 886.202 1419.68 886.692 1413.72L879.464 1403.6L879.287 1403.36L879.28 1403.05L871.84 1080.3L871.833 1079.97L872.025 1079.7C875.084 1075.42 878.383 1072.77 881.748 1071.36C885.117 1069.95 888.485 1069.82 891.629 1070.46C897.872 1071.73 903.259 1076.07 906.319 1079.63L906.527 1079.88L906.554 1080.2C910.13 1123.1 908.045 1317.31 906.557 1408.99L906.556 1409.04L906.551 1409.09L902.21 1468.14H954.609L938.886 1413.85L938.787 1413.64L938.796 1413.4L944.748 1260.21L944.751 1260.12L944.771 1260.03C957.162 1204.05 983.163 1088.07 987.94 1072.55C989.172 1068.55 992.06 1063.15 995.869 1057.08C999.691 1050.98 1004.49 1044.15 1009.59 1037.26C1019.8 1023.5 1031.27 1009.5 1038.72 1000.81L1038.77 1000.76L1038.82 1000.71C1081.46 962.825 1096.01 927.792 1098 915.122C1097.01 868.519 1095.3 796.957 1093.39 733.616C1091.48 670.195 1089.37 615.112 1087.59 601.492C1086.72 594.81 1083.57 586.205 1078.97 576.605C1074.38 567.024 1068.37 556.526 1061.85 546.077C1048.8 525.179 1033.72 504.534 1023.82 491.914L1023.61 491.644V491.302V476.428V475.977L1023.95 475.681C1055.99 447.799 1073.25 422.262 1081.82 401.718C1090.1 381.869 1090.26 366.733 1087.9 358.615C1065.31 363.903 1042.73 376.297 1024.96 388.017C1010.6 397.486 999.474 406.451 994.006 410.856L994.005 410.857C992.613 411.978 991.589 412.804 990.971 413.267C989.761 414.174 988.747 414.725 987.902 414.845C987.45 414.909 986.969 414.86 986.547 414.591C986.126 414.322 985.899 413.921 985.783 413.548C985.568 412.855 985.66 412.015 985.806 411.311C985.96 410.565 986.216 409.789 986.479 409.131L986.584 408.87L986.809 408.703C1008.84 392.375 1043.76 362.891 1076.88 327.539C1110.02 292.173 1141.28 251.015 1156.09 211.339C1170.89 171.685 1171.28 129.602 1165.71 93.0724C1160.82 60.9373 1151.33 33.1537 1143.08 15.1857C1152.24 64.8631 1150.98 110.948 1149.08 128.502L1147.17 128.746C1122.02 62.0879 1071.42 24.7599 1044.03 11.6477C1087.25 48.1916 1111.69 84.9451 1123.51 119.547C1135.81 155.569 1134.4 189.195 1126.36 217.718C1118.32 246.23 1103.63 269.65 1089.36 285.302C1082.22 293.126 1075.16 299.035 1069.05 302.669C1066 304.485 1063.15 305.75 1060.63 306.389C1058.12 307.026 1055.83 307.067 1053.98 306.303C1043.6 302.033 1036.63 294.289 1032.14 286.393C1027.67 278.534 1025.62 270.471 1025.1 265.381C1012.63 206.013 994.196 163.254 976.251 133.933C960.971 108.967 946.07 93.7865 935.528 86.3679C958.851 115.647 998.807 185.134 998.807 265.229V265.886L998.202 266.142C990.251 269.505 980.86 270.111 970.948 268.923C961.029 267.735 950.523 264.742 940.289 260.838C921.497 253.67 903.527 243.39 891.651 235.396C898.783 248.8 921.537 274.331 968.365 289.571C993.983 297.908 1009.07 304.628 1017.52 309.667C1021.73 312.181 1024.36 314.313 1025.82 316.067C1027.21 317.749 1027.81 319.468 1026.91 320.81L1026.86 320.892L1026.79 320.961L964.295 383.428L963.202 384.521L962.664 383.073L945.243 336.188V402.063V403.054H944.251H875.808H875.041L874.848 402.313C872.039 391.548 867.38 365.159 869.796 341.144C865.39 348.707 858.849 360.866 855.918 369.655C855.777 370.076 855.611 370.495 855.392 370.784C855.297 370.908 855.046 371.212 854.609 371.285C854.053 371.379 853.68 371.048 853.521 370.84C853.371 370.646 853.291 370.426 853.243 370.271C853.189 370.098 853.148 369.905 853.114 369.704C853.046 369.302 852.996 368.793 852.958 368.198C852.81 365.824 852.847 361.696 853.009 356.321C853.335 345.547 854.173 329.592 855.102 312.213L855.303 308.472V308.47C857.119 274.555 859.165 236.37 858.45 220.655L858.417 219.937L859.09 219.682C876.401 213.135 911.906 182.827 917.492 113.459C911.882 129.165 902.891 149.786 891.637 167.632C885.119 177.969 877.817 187.413 869.944 194.434C862.077 201.449 853.562 206.11 844.63 206.725L844.487 206.735L844.346 206.704C842.406 206.273 840.02 204.691 837.38 202.346C834.702 199.966 831.635 196.685 828.326 192.664C821.706 184.62 814.06 173.55 806.544 160.649C792.432 136.426 778.722 105.654 773.141 76.2326C769.477 104.147 776.301 165.558 830.429 227.393L830.633 227.626L830.668 227.934C832.657 245.335 833.854 272.115 830.965 295.913C829.521 307.809 827.05 319.016 823.113 327.948C819.183 336.867 813.725 343.661 806.224 346.473C801.524 348.234 795.323 348.372 788.214 347.021C781.088 345.667 772.967 342.801 764.372 338.458C747.18 329.772 728.01 315.136 711.003 294.68C677.98 254.959 653.102 193.281 666.664 110.564C651.462 147.127 638.201 230.013 689.194 319.77L689.752 320.753L688.705 321.178C672.379 327.808 631.639 320.799 592.949 246.229C596.13 276.807 620.523 334.458 698.981 353.505C710.086 356.201 720.5 358.694 730.252 361.029L730.253 361.03C766.195 369.635 793.123 376.083 812.329 382.531C824.541 386.631 833.726 390.761 840.152 395.501C846.608 400.265 850.32 405.676 851.49 412.302L851.505 412.387V412.474C851.505 417.143 846.731 425.636 829.753 426.849L829.239 426.885L828.914 426.486C818.2 413.343 786.637 387.112 745.848 386.698C745.826 402.783 757.045 440.662 803.426 469.639L803.723 469.824L803.838 470.155C808.547 483.756 802.927 515.619 746.732 538.328L746.713 538.335L746.694 538.342C743.288 539.558 738.423 541.888 734.875 544.895C731.279 547.943 729.394 551.343 730.905 554.866C731.955 557.315 734.281 560.469 737.297 563.924C740.293 567.356 743.897 571.006 747.424 574.439C749.754 576.707 752.038 578.868 754.087 580.807L754.089 580.809C755.144 581.807 756.137 582.747 757.042 583.612C758.368 584.88 759.509 585.99 760.367 586.88C760.795 587.325 761.163 587.724 761.451 588.066C761.725 588.392 761.977 588.724 762.126 589.021C762.835 590.439 762.957 591.892 763.079 593.341C763.103 593.627 763.127 593.914 763.156 594.2C763.334 595.978 763.683 598.084 765.102 600.92C766.44 603.595 768.408 604.922 771.151 605.607C773.982 606.315 777.562 606.321 782.07 606.321C784.25 606.321 790.332 605.862 798.38 605.209C800.59 605.03 802.945 604.836 805.401 604.634L805.417 604.633C811.863 604.103 819.005 603.516 826.073 602.978C835.84 602.234 845.481 601.582 852.964 601.302C856.703 601.163 859.921 601.115 862.354 601.198C863.569 601.239 864.609 601.313 865.429 601.429C865.839 601.487 866.212 601.558 866.532 601.646C866.84 601.73 867.162 601.847 867.43 602.026C869.691 603.533 886.092 615.084 902.494 629.244C910.695 636.324 918.919 644.075 925.38 651.564C931.809 659.014 936.618 666.344 937.786 672.572L937.848 672.9L937.699 673.198C937.487 673.621 937.136 673.921 936.698 674.068C936.294 674.204 935.872 674.193 935.496 674.129C934.752 674.004 933.88 673.621 932.948 673.105C931.058 672.057 928.574 670.259 925.727 668C920.019 663.47 912.676 656.942 905.385 650.441L904.568 649.712C897.54 643.445 890.618 637.272 885.256 632.951C882.465 630.7 880.14 628.988 878.464 628.024C877.61 627.533 877.016 627.291 876.657 627.226L876.65 627.225C867.762 650.903 860.592 667.802 837.215 678.107C813.941 688.368 774.663 692.067 701.696 690.106C563.323 686.388 467.055 687.879 396.47 697.905C325.912 707.928 281.102 726.469 245.581 756.798L245.566 756.811L245.55 756.823C229.544 769.429 200.001 813.664 211.599 889.132C212.151 889.169 212.954 888.881 214.109 887.916C215.553 886.711 217.22 884.708 219.042 882.091C222.676 876.873 226.761 869.459 230.74 861.818C232.654 858.144 234.555 854.394 236.364 850.827C238.288 847.032 240.107 843.443 241.725 840.374C243.303 837.379 244.721 834.817 245.9 832.96C246.488 832.034 247.034 831.256 247.525 830.681C247.77 830.393 248.018 830.136 248.267 829.932C248.308 829.898 248.352 829.864 248.397 829.83L248.41 828.909L250.394 828.937L247.418 1037.16L247.417 1037.22L247.409 1037.28C243.893 1062.89 218.297 1121.49 144.167 1152.58C138.569 1155.26 130.294 1160.75 123.724 1168.49C117.15 1176.23 112.347 1186.13 113.502 1197.68C113.893 1201.59 112.918 1207.67 110.982 1215.23C109.036 1222.83 106.085 1232.06 102.43 1242.34C95.119 1262.89 84.9728 1287.68 74.3676 1312.14C53.2431 1360.85 30.2403 1408.35 24.1485 1418.32L9.72405 1463.02H82.9083C81.1851 1457.31 78.794 1449.06 76.7764 1441.39C75.6896 1437.27 74.7089 1433.3 73.9991 1429.98C73.5042 1427.67 73.1304 1425.64 72.9527 1424.07L72.8665 1424.09C72.7801 1423.75 72.8027 1423.31 72.8522 1422.89C72.8428 1422.71 72.838 1422.53 72.838 1422.36H72.9282C73.0022 1421.91 73.1096 1421.39 73.2467 1420.79C73.5978 1419.26 74.1592 1417.21 74.9104 1414.72C76.4139 1409.73 78.6928 1402.92 81.6144 1394.86C87.4581 1378.73 95.8844 1357.56 105.847 1335.87C115.808 1314.19 127.317 1291.97 139.329 1273.76C151.309 1255.6 163.899 1241.26 176.073 1235.55C192.662 1227.78 220.47 1207.41 248.481 1184.81C276.46 1162.24 304.535 1137.55 321.623 1121.21L322.309 1121.93L321.985 1120.99C390.746 1097.29 435.612 1043.93 449.412 1020.29L451.256 1020.88C448.744 1047 420.146 1114.05 326.381 1175.93C333.515 1213.5 362.253 1311.87 421.36 1409.95L421.502 1410.19V1410.47V1466.66H504.278C470.395 1434.79 407.074 1327.9 410.592 1220.06L410.609 1219.52L411.073 1219.24C448.215 1196.96 535.573 1133.98 587.834 1060.37L588.392 1059.59L589.193 1060.12C614.307 1076.86 683.913 1104.8 760.914 1082.32Z" fill="black" stroke="black" stroke-width="10"/>
</svg>
