<svg width="4910" height="1475" viewBox="0 0 4910 1475" fill="none" xmlns="http://www.w3.org/2000/svg">
<path d="M206.401 1051.66H163.977V1168.33H7.53906V704.314H230.927C273.793 704.314 311.135 711.385 342.953 725.526C374.77 739.668 399.297 759.996 416.531 786.511C433.766 813.026 442.383 843.96 442.383 879.313C442.383 912.456 434.871 941.402 419.846 966.149C404.821 990.896 383.167 1010.56 354.884 1025.14L452.327 1168.33H285.283L206.401 1051.66ZM284.62 879.313C284.62 862.078 279.317 848.821 268.711 839.54C258.105 829.818 242.196 824.957 220.984 824.957H163.977V933.668H220.984C242.196 933.668 258.105 929.028 268.711 919.748C279.317 910.026 284.62 896.548 284.62 879.313Z" fill="white"/>
<path d="M887.249 1050.33V1168.33H501.457V704.314H878.631V822.306H655.243V876.661H851.453V989.35H655.243V1050.33H887.249Z" fill="white"/>
<path d="M947.472 704.314H1103.91V1168.33H947.472V704.314Z" fill="white"/>
<path d="M1636.6 704.314V1168.33H1508L1331.68 957.532V1168.33H1179.22V704.314H1307.82L1484.14 915.108V704.314H1636.6Z" fill="white"/>
<path d="M1711.98 704.314H1940.67C1992.37 704.314 2037.89 713.816 2077.22 732.818C2116.99 751.378 2147.7 778.114 2169.36 813.026C2191.45 847.937 2202.5 889.035 2202.5 936.32C2202.5 983.605 2191.45 1024.7 2169.36 1059.61C2147.7 1094.53 2116.99 1121.48 2077.22 1140.48C2037.89 1159.05 1992.37 1168.33 1940.67 1168.33H1711.98V704.314ZM1934.04 1046.36C1967.62 1046.36 1994.36 1036.86 2014.25 1017.85C2034.57 998.409 2044.74 971.231 2044.74 936.32C2044.74 901.409 2034.57 874.452 2014.25 855.449C1994.36 836.005 1967.62 826.283 1934.04 826.283H1868.41V1046.36H1934.04Z" fill="white"/>
<path d="M2645.41 1050.33V1168.33H2259.62V704.314H2636.8V822.306H2413.41V876.661H2609.62V989.35H2413.41V1050.33H2645.41Z" fill="white"/>
<path d="M3091.43 1050.33V1168.33H2705.64V704.314H3082.81V822.306H2859.42V876.661H3055.63V989.35H2859.42V1050.33H3091.43Z" fill="white"/>
<path d="M3350.51 1051.66H3308.09V1168.33H3151.65V704.314H3375.04C3417.91 704.314 3455.25 711.385 3487.07 725.526C3518.88 739.668 3543.41 759.996 3560.64 786.511C3577.88 813.026 3586.5 843.96 3586.5 879.313C3586.5 912.456 3578.98 941.402 3563.96 966.149C3548.93 990.896 3527.28 1010.56 3499 1025.14L3596.44 1168.33H3429.4L3350.51 1051.66ZM3428.73 879.313C3428.73 862.078 3423.43 848.821 3412.82 839.54C3402.22 829.818 3386.31 824.957 3365.1 824.957H3308.09V933.668H3365.1C3386.31 933.668 3402.22 929.028 3412.82 919.748C3423.43 910.026 3428.73 896.548 3428.73 879.313Z" fill="white"/>
<path d="M156.443 1341.33L125.569 1462.94H106.423L78.308 1363.58L50.193 1462.94H31.0472L0 1341.33H17.4209L40.7064 1444.65L69.5113 1341.33H86.9322L115.737 1444.31L139.195 1341.33H156.443Z" fill="white"/>
<path d="M310.409 1354.1V1395.67H356.635V1407.74H310.409V1450.17H361.809V1462.94H294.713V1341.33H361.809V1354.1H310.409Z" fill="white"/>
<path d="M561.177 1399.98C568.651 1401.59 574.688 1405.15 579.288 1410.67C584.003 1416.19 586.36 1422.69 586.36 1430.16C586.36 1440.05 582.968 1447.99 576.183 1453.97C569.514 1459.95 559.797 1462.94 547.033 1462.94H501.842V1341.33H546.343C558.532 1341.33 567.789 1344.04 574.113 1349.44C580.438 1354.84 583.6 1362.26 583.6 1371.69C583.6 1379.51 581.473 1385.83 577.218 1390.66C573.078 1395.49 567.731 1398.6 561.177 1399.98ZM517.538 1394.63H543.756C551.46 1394.63 557.325 1392.85 561.35 1389.28C565.489 1385.72 567.559 1380.72 567.559 1374.28C567.559 1368.07 565.547 1363.18 561.522 1359.62C557.497 1356.05 551.345 1354.27 543.066 1354.27H517.538V1394.63ZM544.101 1449.83C552.38 1449.83 558.762 1447.93 563.247 1444.13C567.846 1440.34 570.146 1434.99 570.146 1428.09C570.146 1421.31 567.789 1416.02 563.074 1412.22C558.475 1408.32 552.035 1406.36 543.756 1406.36H517.538V1449.83H544.101Z" fill="white"/>
<path d="M779.631 1393.08V1406.36H710.638V1393.08H779.631Z" fill="white"/>
<path d="M1032.88 1402.05C1032.88 1414.35 1030.4 1425.1 1025.46 1434.3C1020.51 1443.39 1013.21 1450.46 1003.55 1455.52C994.008 1460.46 982.51 1462.94 969.056 1462.94H930.419V1341.33H969.056C982.51 1341.33 994.008 1343.81 1003.55 1348.75C1013.21 1353.58 1020.51 1360.59 1025.46 1369.79C1030.4 1378.88 1032.88 1389.63 1032.88 1402.05ZM967.848 1448.79C983.717 1448.79 995.848 1444.71 1004.24 1436.55C1012.64 1428.38 1016.83 1416.88 1016.83 1402.05C1016.83 1387.21 1012.64 1375.72 1004.24 1367.55C995.963 1359.27 983.832 1355.13 967.848 1355.13H946.115V1448.79H967.848Z" fill="white"/>
<path d="M1189.63 1354.1V1395.67H1235.85V1407.74H1189.63V1450.17H1241.03V1462.94H1173.93V1341.33H1241.03V1354.1H1189.63Z" fill="white"/>
<path d="M1457.99 1431.37C1457.99 1437.12 1456.61 1442.47 1453.85 1447.41C1451.09 1452.36 1446.89 1456.38 1441.26 1459.49C1435.62 1462.59 1428.67 1464.14 1420.39 1464.14C1412.34 1464.14 1405.15 1462.71 1398.83 1459.83C1392.62 1456.84 1387.62 1452.82 1383.82 1447.76C1380.14 1442.58 1378.01 1436.72 1377.44 1430.16H1394.17C1394.52 1433.61 1395.67 1437.01 1397.62 1440.34C1399.69 1443.56 1402.57 1446.26 1406.24 1448.45C1410.04 1450.52 1414.58 1451.55 1419.87 1451.55C1426.77 1451.55 1432.06 1449.71 1435.74 1446.03C1439.42 1442.35 1441.26 1437.64 1441.26 1431.89C1441.26 1426.94 1439.94 1422.92 1437.29 1419.81C1434.76 1416.71 1431.6 1414.29 1427.81 1412.57C1424.01 1410.73 1418.84 1408.78 1412.28 1406.71C1404.58 1404.18 1398.37 1401.82 1393.65 1399.63C1389.05 1397.33 1385.09 1393.94 1381.75 1389.46C1378.53 1384.97 1376.92 1379.05 1376.92 1371.69C1376.92 1365.37 1378.42 1359.79 1381.41 1354.96C1384.51 1350.13 1388.88 1346.39 1394.52 1343.75C1400.27 1341.1 1406.99 1339.78 1414.7 1339.78C1426.66 1339.78 1436.14 1342.71 1443.16 1348.58C1450.17 1354.33 1454.25 1361.69 1455.4 1370.66H1438.5C1437.58 1365.83 1435.11 1361.57 1431.08 1357.89C1427.06 1354.21 1421.6 1352.37 1414.7 1352.37C1408.37 1352.37 1403.31 1354.04 1399.52 1357.37C1395.72 1360.59 1393.83 1365.19 1393.83 1371.17C1393.83 1375.89 1395.03 1379.74 1397.45 1382.73C1399.98 1385.6 1403.08 1387.9 1406.76 1389.63C1410.44 1391.24 1415.5 1393.08 1421.94 1395.15C1429.76 1397.68 1436.03 1400.09 1440.74 1402.39C1445.57 1404.69 1449.65 1408.2 1452.99 1412.91C1456.32 1417.51 1457.99 1423.67 1457.99 1431.37Z" fill="white"/>
<path d="M1614.67 1341.33V1462.94H1598.97V1341.33H1614.67Z" fill="white"/>
<path d="M1814.98 1340.13C1829.12 1340.13 1840.96 1343.63 1850.51 1350.65C1860.17 1357.66 1866.66 1367.21 1870 1379.28H1853.44C1850.56 1371.92 1845.73 1366 1838.95 1361.51C1832.28 1357.03 1824.35 1354.79 1815.15 1354.79C1806.87 1354.79 1799.45 1356.74 1792.9 1360.65C1786.34 1364.45 1781.17 1369.91 1777.37 1377.04C1773.69 1384.17 1771.85 1392.56 1771.85 1402.22C1771.85 1412.11 1773.75 1420.68 1777.55 1427.92C1781.34 1435.05 1786.57 1440.57 1793.24 1444.48C1800.03 1448.27 1807.79 1450.17 1816.53 1450.17C1824 1450.17 1830.84 1448.56 1837.05 1445.34C1843.26 1442.12 1848.32 1437.46 1852.23 1431.37C1856.26 1425.16 1858.67 1417.92 1859.48 1409.64H1811.7V1397.91H1872.76V1412.4C1871.72 1422.06 1868.73 1430.8 1863.79 1438.61C1858.84 1446.43 1852.17 1452.64 1843.78 1457.24C1835.39 1461.84 1825.84 1464.14 1815.15 1464.14C1803.42 1464.14 1793.07 1461.56 1784.1 1456.38C1775.13 1451.09 1768.12 1443.79 1763.06 1434.48C1758.11 1425.05 1755.64 1414.29 1755.64 1402.22C1755.64 1390.15 1758.11 1379.45 1763.06 1370.14C1768.12 1360.71 1775.13 1353.35 1784.1 1348.06C1793.07 1342.77 1803.36 1340.13 1814.98 1340.13Z" fill="white"/>
<path d="M2108.43 1462.94H2092.73L2029.6 1366.86V1462.94H2013.91V1341.33H2029.6L2092.73 1437.58V1341.33H2108.43V1462.94Z" fill="white"/>
<path d="M2492.96 1431.37C2492.96 1437.12 2491.58 1442.47 2488.83 1447.41C2486.07 1452.36 2481.87 1456.38 2476.23 1459.49C2470.6 1462.59 2463.64 1464.14 2455.36 1464.14C2447.31 1464.14 2440.13 1462.71 2433.8 1459.83C2427.59 1456.84 2422.59 1452.82 2418.8 1447.76C2415.12 1442.58 2412.99 1436.72 2412.41 1430.16H2429.15C2429.49 1433.61 2430.64 1437.01 2432.59 1440.34C2434.66 1443.56 2437.54 1446.26 2441.22 1448.45C2445.01 1450.52 2449.56 1451.55 2454.85 1451.55C2461.74 1451.55 2467.03 1449.71 2470.71 1446.03C2474.39 1442.35 2476.23 1437.64 2476.23 1431.89C2476.23 1426.94 2474.91 1422.92 2472.27 1419.81C2469.74 1416.71 2466.57 1414.29 2462.78 1412.57C2458.99 1410.73 2453.81 1408.78 2447.26 1406.71C2439.55 1404.18 2433.34 1401.82 2428.63 1399.63C2424.03 1397.33 2420.06 1393.94 2416.73 1389.46C2413.51 1384.97 2411.9 1379.05 2411.9 1371.69C2411.9 1365.37 2413.39 1359.79 2416.38 1354.96C2419.49 1350.13 2423.86 1346.39 2429.49 1343.75C2435.24 1341.1 2441.97 1339.78 2449.67 1339.78C2461.63 1339.78 2471.12 1342.71 2478.13 1348.58C2485.15 1354.33 2489.23 1361.69 2490.38 1370.66H2473.47C2472.55 1365.83 2470.08 1361.57 2466.06 1357.89C2462.03 1354.21 2456.57 1352.37 2449.67 1352.37C2443.35 1352.37 2438.29 1354.04 2434.49 1357.37C2430.7 1360.59 2428.8 1365.19 2428.8 1371.17C2428.8 1375.89 2430.01 1379.74 2432.42 1382.73C2434.95 1385.6 2438.06 1387.9 2441.74 1389.63C2445.42 1391.24 2450.48 1393.08 2456.92 1395.15C2464.73 1397.68 2471 1400.09 2475.72 1402.39C2480.55 1404.69 2484.63 1408.2 2487.96 1412.91C2491.3 1417.51 2492.96 1423.67 2492.96 1431.37Z" fill="white"/>
<path d="M2708.46 1341.33V1354.1H2674.14V1462.94H2658.44V1354.1H2624.11V1341.33H2708.46Z" fill="white"/>
<path d="M2858.77 1341.33V1414.29C2858.77 1426.25 2861.42 1435.11 2866.71 1440.86C2872 1446.49 2879.3 1449.31 2888.61 1449.31C2897.81 1449.31 2905 1446.43 2910.17 1440.68C2915.35 1434.94 2917.94 1426.14 2917.94 1414.29V1341.33H2933.63V1414.29C2933.63 1430.85 2929.49 1443.33 2921.21 1451.72C2913.05 1460 2902.07 1464.14 2888.27 1464.14C2874.58 1464.14 2863.6 1460 2855.32 1451.72C2847.16 1443.33 2843.08 1430.85 2843.08 1414.29V1341.33H2858.77Z" fill="white"/>
<path d="M3180.31 1402.05C3180.31 1414.35 3177.84 1425.1 3172.89 1434.3C3167.95 1443.39 3160.64 1450.46 3150.99 1455.52C3141.44 1460.46 3129.94 1462.94 3116.49 1462.94H3077.85V1341.33H3116.49C3129.94 1341.33 3141.44 1343.81 3150.99 1348.75C3160.64 1353.58 3167.95 1360.59 3172.89 1369.79C3177.84 1378.88 3180.31 1389.63 3180.31 1402.05ZM3115.28 1448.79C3131.15 1448.79 3143.28 1444.71 3151.68 1436.55C3160.07 1428.38 3164.27 1416.88 3164.27 1402.05C3164.27 1387.21 3160.07 1375.72 3151.68 1367.55C3143.4 1359.27 3131.26 1355.13 3115.28 1355.13H3093.55V1448.79H3115.28Z" fill="white"/>
<path d="M3337.06 1341.33V1462.94H3321.36V1341.33H3337.06Z" fill="white"/>
<path d="M3537.89 1339.78C3549.15 1339.78 3559.27 1342.43 3568.24 1347.72C3577.33 1353.01 3584.46 1360.42 3589.63 1369.97C3594.81 1379.4 3597.39 1390.09 3597.39 1402.05C3597.39 1414.01 3594.81 1424.76 3589.63 1434.3C3584.46 1443.73 3577.33 1451.09 3568.24 1456.38C3559.27 1461.67 3549.15 1464.32 3537.89 1464.32C3526.62 1464.32 3516.38 1461.67 3507.18 1456.38C3498.1 1451.09 3490.97 1443.73 3485.79 1434.3C3480.62 1424.76 3478.03 1414.01 3478.03 1402.05C3478.03 1390.09 3480.62 1379.4 3485.79 1369.97C3490.97 1360.42 3498.1 1353.01 3507.18 1347.72C3516.38 1342.43 3526.62 1339.78 3537.89 1339.78ZM3537.89 1354.44C3529.49 1354.44 3521.96 1356.4 3515.29 1360.31C3508.74 1364.1 3503.56 1369.62 3499.77 1376.87C3496.09 1383.99 3494.25 1392.39 3494.25 1402.05C3494.25 1411.59 3496.09 1419.99 3499.77 1427.23C3503.56 1434.48 3508.74 1440.05 3515.29 1443.96C3521.96 1447.76 3529.49 1449.65 3537.89 1449.65C3546.16 1449.65 3553.58 1447.7 3560.14 1443.79C3566.81 1439.88 3571.98 1434.36 3575.66 1427.23C3579.45 1419.99 3581.35 1411.59 3581.35 1402.05C3581.35 1392.39 3579.45 1383.99 3575.66 1376.87C3571.98 1369.62 3566.81 1364.1 3560.14 1360.31C3553.58 1356.4 3546.16 1354.44 3537.89 1354.44Z" fill="white"/>
<path fill-rule="evenodd" clip-rule="evenodd" d="M4772.35 6.3147L4771.36 8.00576C4817.74 45.8391 4843.47 83.8982 4855.63 119.502C4867.79 155.103 4866.4 188.314 4858.45 216.495C4850.5 244.686 4835.98 267.838 4821.89 283.281C4814.85 291.004 4807.93 296.772 4802.04 300.279C4799.09 302.034 4796.42 303.204 4794.14 303.782C4791.85 304.364 4790.04 304.323 4788.73 303.785C4778.87 299.726 4772.2 292.35 4767.87 284.728C4763.52 277.096 4761.56 269.274 4761.07 264.445L4761.07 264.392L4761.06 264.34C4748.54 204.749 4730.02 161.757 4711.94 132.213C4693.88 102.696 4676.21 86.5457 4665.33 80.7294L4664.11 82.2523C4686.27 107.848 4730.59 179.993 4730.82 263.88C4723.42 266.844 4714.64 267.402 4705.18 266.269C4695.48 265.106 4685.14 262.168 4675 258.3C4654.72 250.564 4635.37 239.155 4623.77 231.011L4621.04 229.096L4622.28 232.191C4627.37 244.916 4650.35 274.043 4701.75 290.771C4727.32 299.091 4742.24 305.758 4750.5 310.684C4754.64 313.153 4757.05 315.148 4758.29 316.647C4759.46 318.064 4759.39 318.74 4759.29 318.966L4697.99 380.249L4679.18 329.641L4677.26 329.986V400.386H4610.58C4607.6 388.57 4602.86 360.357 4606.33 336.075L4604.5 335.416C4600.81 341.41 4592.88 355.349 4588.88 365.978C4588.81 363.606 4588.86 360.101 4588.99 355.695C4589.32 344.95 4590.15 329.021 4591.08 311.633L4591.29 307.768L4591.29 307.763C4593.08 274.435 4595.09 236.819 4594.46 220.59C4613.46 212.965 4650.4 179.845 4653.95 105.448L4652.01 105.096C4646.82 121.153 4636.89 145.391 4623.96 165.889C4617.5 176.139 4610.31 185.417 4602.62 192.269C4594.98 199.085 4586.92 203.436 4578.64 204.051C4577.24 203.691 4575.23 202.427 4572.7 200.178C4570.12 197.891 4567.13 194.693 4563.86 190.719C4557.32 182.775 4549.73 171.796 4542.26 158.966C4527.3 133.294 4512.86 100.323 4508.12 69.5543L4506.17 69.4921C4500.65 94.5754 4504.41 161.003 4562.73 227.78C4564.69 245.09 4565.84 271.53 4563 294.989C4561.56 306.791 4559.12 317.782 4555.3 326.463C4551.47 335.156 4546.31 341.388 4539.53 343.931C4535.3 345.516 4529.51 345.703 4522.58 344.388C4515.68 343.075 4507.74 340.282 4499.27 336.003C4482.33 327.446 4463.37 312.986 4446.53 292.727C4412.86 252.23 4387.65 188.573 4403.96 102.611L4402.1 101.977C4385.66 134.355 4366.67 222.748 4420.9 319.052C4405 324.479 4364.84 316.944 4326.51 240.303L4324.63 240.78C4325.63 270.392 4348.68 334.395 4432.51 354.746C4443.65 357.45 4454.09 359.949 4463.85 362.286L4463.85 362.288L4463.86 362.288C4499.78 370.889 4526.58 377.308 4545.7 383.726C4557.85 387.806 4566.8 391.857 4572.97 396.412C4579.09 400.922 4582.44 405.895 4583.52 411.872C4583.46 415.15 4579.9 422.863 4564.12 424.147C4552.79 410.498 4520.52 384.025 4478.87 384.025H4477.91L4477.88 384.986C4477.37 401.194 4488.44 440.549 4536.07 470.446C4540.1 482.843 4535.19 513.49 4480.01 535.796C4476.47 537.061 4471.38 539.488 4467.59 542.697C4463.85 545.871 4461.02 550.155 4463.08 554.962C4464.26 557.718 4466.77 561.071 4469.8 564.542C4472.85 568.035 4476.5 571.728 4480.04 575.174C4482.38 577.451 4484.68 579.632 4486.74 581.577L4486.74 581.58C4487.02 581.846 4487.3 582.107 4487.57 582.363C4488.31 583.067 4489.02 583.735 4489.67 584.36C4491 585.626 4492.11 586.712 4492.94 587.57C4493.35 588 4493.69 588.363 4493.93 588.658C4494.2 588.969 4494.32 589.149 4494.35 589.223C4494.88 590.272 4494.97 591.286 4495.09 592.716C4495.11 592.909 4495.13 593.11 4495.14 593.32C4495.16 593.447 4495.17 593.578 4495.18 593.712C4495.38 595.652 4495.77 598.008 4497.33 601.121C4498.97 604.396 4501.46 606.043 4504.67 606.845C4507.76 607.619 4511.59 607.619 4515.96 607.619H4516.07C4518.35 607.619 4524.55 607.148 4532.54 606.5C4533.57 606.417 4534.62 606.33 4535.71 606.242C4536.97 606.139 4538.26 606.032 4539.58 605.923L4539.59 605.923C4546.03 605.393 4553.16 604.807 4560.22 604.269C4569.99 603.526 4579.6 602.876 4587.04 602.598C4590.76 602.459 4593.92 602.414 4596.29 602.494C4597.47 602.534 4598.43 602.605 4599.15 602.707C4599.51 602.758 4599.79 602.814 4600.01 602.872C4600.07 602.89 4600.13 602.907 4600.17 602.923C4600.2 602.933 4600.23 602.943 4600.25 602.952C4600.31 602.976 4600.33 602.99 4600.33 602.99C4602.53 604.458 4618.87 615.96 4635.2 630.059C4643.36 637.109 4651.51 644.789 4657.88 652.173C4663.99 659.252 4668.35 665.934 4669.67 671.456C4669.26 671.357 4668.68 671.114 4667.91 670.685C4666.17 669.722 4663.79 668.011 4660.96 665.762C4655.31 661.275 4648.01 654.789 4640.71 648.276L4639.87 647.527C4632.86 641.278 4625.9 635.076 4620.5 630.722C4617.7 628.464 4615.27 626.667 4613.45 625.62C4612.56 625.106 4611.72 624.718 4611.01 624.59C4610.65 624.525 4610.23 624.507 4609.82 624.661C4609.37 624.831 4609.05 625.172 4608.88 625.609L4608.88 625.614C4599.95 649.41 4593.05 665.631 4570.42 675.608C4547.61 685.663 4508.77 689.401 4435.75 687.439C4297.37 683.721 4200.96 685.204 4130.19 695.257C4059.41 705.311 4014.2 723.949 3978.31 754.593C3961.62 767.749 3931.79 812.938 3943.73 889.371L3943.81 889.876L3944.27 890.105C3945.97 890.954 3947.8 890.075 3949.38 888.753C3951.03 887.374 3952.82 885.196 3954.67 882.538C3958.38 877.206 3962.52 869.691 3966.5 862.049C3968.45 858.311 3970.35 854.566 3972.15 851.014L3972.15 851.011C3974.05 847.249 3975.85 843.703 3977.48 840.612C3979.05 837.625 3980.44 835.123 3981.57 833.337C3981.85 832.898 3982.11 832.508 3982.35 832.169L3979.44 1036.39C3975.98 1061.38 3950.77 1119.31 3877.38 1150.07L3877.35 1150.08L3877.33 1150.09C3871.52 1152.87 3863 1158.53 3856.21 1166.52C3849.42 1174.52 3844.3 1184.94 3845.53 1197.19C3845.88 1200.72 3845 1206.49 3843.06 1214.05C3841.14 1221.57 3838.21 1230.74 3834.56 1240.99C3827.27 1261.48 3817.15 1286.23 3806.55 1310.66C3785.34 1359.57 3762.3 1407.1 3756.4 1416.7L3756.33 1416.8L3756.3 1416.91L3741.42 1463.02L3741 1464.31H3742.36H3818.25H3819.58L3819.19 1463.03C3817.46 1457.34 3814.86 1448.43 3812.69 1440.2C3811.61 1436.09 3810.64 1432.16 3809.94 1428.88C3809.32 1426.02 3808.93 1423.73 3808.84 1422.28C3808.9 1421.85 3809.01 1421.27 3809.18 1420.55C3809.52 1419.08 3810.06 1417.08 3810.81 1414.61C3812.3 1409.66 3814.57 1402.89 3817.48 1394.85C3823.31 1378.77 3831.71 1357.64 3841.65 1336.01C3851.59 1314.38 3863.05 1292.26 3874.98 1274.17C3886.95 1256.03 3899.28 1242.11 3910.91 1236.66C3927.75 1228.77 3955.74 1208.24 3983.73 1185.67C4011.66 1163.14 4039.69 1138.49 4056.84 1122.11C4122.33 1099.46 4166.26 1050.19 4182.61 1024.69C4177.44 1052.92 4147.31 1115.68 4058.74 1173.96L4058.19 1174.32L4058.31 1174.97C4065.27 1212.22 4094.03 1311.26 4153.52 1410.06V1466.96V1467.95H4154.51H4240.81H4243.37L4241.48 1466.23C4208.43 1436.16 4143.23 1328.8 4146.56 1219.97C4183.94 1197.47 4270.57 1134.9 4322.9 1061.61C4349.01 1078.63 4418.6 1106 4495.52 1083.52L4495.24 1082.58L4495.61 1083.49C4496.04 1083.32 4496.57 1083.33 4497.27 1083.63C4497.98 1083.93 4498.79 1084.52 4499.69 1085.39C4501.48 1087.13 4503.43 1089.82 4505.37 1092.98C4509.23 1099.29 4512.93 1107.27 4515.15 1112.69L4515.16 1112.71L4515.17 1112.74C4580.54 1251.73 4588.95 1363.64 4585.02 1402.17L4573.14 1468.2L4572.82 1469.44H4574.1H4574.2H4574.3H4574.4H4574.5H4574.6H4574.7H4574.8H4574.9H4575H4575.1H4575.21H4575.31H4575.41H4575.52H4575.62H4575.72H4575.83H4575.93H4576.04H4576.15H4576.25H4576.36H4576.46H4576.57H4576.68H4576.79H4576.89H4577H4577.11H4577.22H4577.33H4577.44H4577.55H4577.66H4577.77H4577.88H4577.99H4578.1H4578.21H4578.32H4578.44H4578.55H4578.66H4578.77H4578.89H4579H4579.11H4579.23H4579.34H4579.46H4579.57H4579.68H4579.8H4579.92H4580.03H4580.15H4580.26H4580.38H4580.5H4580.61H4580.73H4580.85H4580.97H4581.08H4581.2H4581.32H4581.44H4581.56H4581.68H4581.79H4581.91H4582.03H4582.15H4582.27H4582.39H4582.51H4582.63H4582.75H4582.88H4583H4583.12H4583.24H4583.36H4583.48H4583.6H4583.73H4583.85H4583.97H4584.09H4584.22H4584.34H4584.46H4584.59H4584.71H4584.83H4584.96H4585.08H4585.21H4585.33H4585.45H4585.58H4585.7H4585.83H4585.95H4586.08H4586.2H4586.33H4586.45H4586.58H4586.71H4586.83H4586.96H4587.08H4587.21H4587.34H4587.46H4587.59H4587.72H4587.84H4587.97H4588.1H4588.22H4588.35H4588.48H4588.6H4588.73H4588.86H4588.99H4589.11H4589.24H4589.37H4589.5H4589.62H4589.75H4589.88H4590.01H4590.14H4590.26H4590.39H4590.52H4590.65H4590.78H4590.91H4591.03H4591.16H4591.29H4591.42H4591.55H4591.68H4591.81H4591.93H4592.06H4592.19H4592.32H4592.45H4592.58H4592.71H4592.84H4592.96H4593.09H4593.22H4593.35H4593.48H4593.61H4593.74H4593.87H4593.99H4594.12H4594.25H4594.38H4594.51H4594.64H4594.77H4594.89H4595.02H4595.15H4595.28H4595.41H4595.54H4595.66H4595.79H4595.92H4596.05H4596.18H4596.31H4596.43H4596.56H4596.69H4596.82H4596.95H4597.07H4597.2H4597.33H4597.46H4597.58H4597.71H4597.84H4597.97H4598.09H4598.22H4598.35H4598.47H4598.6H4598.73H4598.85H4598.98H4599.11H4599.23H4599.36H4599.48H4599.61H4599.74H4599.86H4599.99H4600.11H4600.24H4600.36H4600.49H4600.61H4600.74H4600.86H4600.99H4601.11H4601.24H4601.36H4601.48H4601.61H4601.73H4601.85H4601.98H4602.1H4602.22H4602.35H4602.47H4602.59H4602.71H4602.84H4602.96H4603.08H4603.2H4603.32H4603.44H4603.57H4603.69H4603.81H4603.93H4604.05H4604.17H4604.29H4604.41H4604.53H4604.65H4604.76H4604.88H4605H4605.12H4605.24H4605.36H4605.47H4605.59H4605.71H4605.83H4605.94H4606.06H4606.18H4606.29H4606.41H4606.52H4606.64H4606.75H4606.87H4606.98H4607.1H4607.21H4607.33H4607.44H4607.55H4607.67H4607.78H4607.89H4608H4608.11H4608.23H4608.34H4608.45H4608.56H4608.67H4608.78H4608.89H4609H4609.11H4609.22H4609.33H4609.43H4609.54H4609.65H4609.76H4609.87H4609.97H4610.08H4610.18H4610.29H4610.4H4610.5H4610.61H4610.71H4610.82H4610.92H4611.02H4611.13H4611.23H4611.33H4611.43H4611.53H4611.64H4611.74H4611.84H4611.94H4612.04H4612.14H4612.24H4612.34H4612.43H4612.53H4612.63H4612.73H4612.83H4612.92H4613.02H4613.11H4613.21H4613.3H4613.4H4613.49H4613.59H4613.68H4613.77H4613.87H4613.96H4614.05H4614.14H4614.23H4614.32H4614.41H4614.5H4614.59H4614.68H4614.77H4614.86H4614.95H4615.03H4615.12H4615.21H4615.29H4615.38H4615.46H4615.55H4615.63H4615.71H4615.8H4615.88H4615.96H4616.04H4616.12H4616.2H4616.29H4616.36H4616.44H4616.52H4616.6H4616.68H4616.76H4616.83H4616.91H4616.99H4617.06H4617.14H4617.21H4617.28H4617.36H4617.43H4617.5H4617.58H4617.65H4617.72H4617.79H4617.86H4617.93H4618H4618.06H4618.13H4618.2H4618.27H4618.33H4618.4H4618.46H4618.53H4618.59H4618.65H4618.72H4618.78H4618.84H4618.9H4618.96H4619.02H4619.08H4619.14H4619.2H4619.26H4619.31H4619.37H4619.43H4619.48H4619.54H4619.59H4619.65H4619.7H4619.75H4619.8H4619.85H4619.91H4619.96H4620.01H4620.05H4620.1H4620.15H4620.2H4620.24H4620.29H4620.33H4620.38H4620.42H4620.47H4620.51H4620.55H4620.59H4620.63H4620.67H4620.71H4620.75H4620.79H4620.83H4620.87H4620.9H4620.94H4620.97H4621.01H4621.04H4621.07H4621.11H4621.14H4621.17H4621.2H4621.23H4621.26H4621.29H4621.31H4621.34H4621.37H4621.39H4621.42H4621.44H4621.46H4621.49H4621.51H4621.53H4621.55H4621.57H4621.59H4621.61H4621.63H4621.64H4621.66H4621.68H4621.69H4621.7H4621.71H4621.72H4621.72H4621.73H4621.74H4621.74H4621.75H4621.75H4621.76H4621.76H4621.77H4621.77H4621.78H4621.78H4621.79H4621.79H4621.8H4621.8H4621.8H4621.81H4621.81H4621.81H4621.82H4621.82H4621.82H4621.82H4621.82H4621.83H4621.83H4621.83L4621.83 1467.47C4622.04 1467.51 4622.13 1467.63 4622.13 1467.63L4622.13 1467.62C4622.12 1467.61 4622.1 1467.58 4622.08 1467.54C4622.05 1467.46 4622 1467.33 4621.94 1467.14C4621.78 1466.56 4621.65 1465.66 4621.56 1464.47C4621.37 1462.1 4621.35 1458.8 4621.44 1455.09C4621.61 1447.68 4622.2 1418.78 4622.7 1412.84L4622.73 1412.47L4622.52 1412.18L4615.26 1402.02L4607.83 1079.9C4610.66 1076.02 4613.62 1073.72 4616.51 1072.51C4619.47 1071.27 4622.42 1071.14 4625.23 1071.72C4630.76 1072.84 4635.68 1076.68 4638.6 1080C4642.13 1123.41 4640.06 1316.69 4638.57 1408.23L4634.12 1468.34L4633.99 1469.44H4635.1H4690.15H4691.7L4691.06 1468.04L4674.79 1412.56L4680.73 1259.69C4693.14 1203.6 4719.09 1087.86 4723.84 1072.45C4724.99 1068.72 4727.75 1063.5 4731.55 1057.44C4735.33 1051.41 4740.1 1044.62 4745.19 1037.76C4755.34 1024.06 4766.76 1010.13 4774.19 1001.46C4817.12 963.301 4831.95 927.83 4833.97 914.653L4833.99 914.568L4833.98 914.481C4832.99 867.877 4831.28 796.259 4829.37 732.871C4827.46 669.522 4825.35 614.297 4823.56 600.55C4822.65 593.548 4819.39 584.714 4814.76 575.063C4810.12 565.392 4804.08 554.826 4797.53 544.341C4784.53 523.52 4769.53 502.961 4759.59 490.274V476.194C4791.6 448.268 4808.97 422.6 4817.65 401.796C4826.35 380.946 4826.35 364.924 4823.52 356.444L4823.23 355.593L4822.36 355.791C4799.12 361.035 4775.94 373.754 4757.87 385.677C4743.39 395.222 4732.1 404.321 4726.69 408.685L4726.68 408.69C4725.34 409.772 4724.36 410.562 4723.78 410.995C4722.65 411.842 4721.99 412.132 4721.66 412.191C4721.62 411.976 4721.63 411.587 4721.75 411.027C4721.85 410.512 4722.03 409.954 4722.22 409.439C4744.35 393.012 4779.23 363.532 4812.33 328.21C4845.53 292.78 4877 251.392 4891.95 211.347C4906.91 171.281 4907.27 128.834 4901.67 92.0887C4896.08 55.345 4884.51 24.2317 4875.54 6.78424L4873.68 7.43632C4883.64 56.1099 4883.2 102.554 4881.5 123.435C4853.45 53.0998 4797.4 16.1327 4772.35 6.3147ZM4494.91 1081.63C4495.96 1081.23 4497.04 1081.37 4498.05 1081.81C4499.07 1082.25 4500.08 1083.01 4501.07 1083.97C4503.04 1085.88 4505.09 1088.73 4507.06 1091.94C4511 1098.37 4514.73 1106.44 4516.98 1111.92C4582.5 1251.25 4590.98 1363.57 4586.99 1402.44L4586.98 1402.52L4586.96 1402.59L4575.38 1467.46H4575.41H4575.52H4575.62H4575.72H4575.83H4575.93H4576.04H4576.15H4576.25H4576.36H4576.46H4576.57H4576.68H4576.79H4576.89H4577H4577.11H4577.22H4577.33H4577.44H4577.55H4577.66H4577.77H4577.88H4577.99H4578.1H4578.21H4578.32H4578.44H4578.55H4578.66H4578.77H4578.89H4579H4579.11H4579.23H4579.34H4579.46H4579.57H4579.68H4579.8H4579.92H4580.03H4580.15H4580.26H4580.38H4580.5H4580.61H4580.73H4580.85H4580.97H4581.08H4581.2H4581.32H4581.44H4581.56H4581.68H4581.79H4581.91H4582.03H4582.15H4582.27H4582.39H4582.51H4582.63H4582.75H4582.88H4583H4583.12H4583.24H4583.36H4583.48H4583.6H4583.73H4583.85H4583.97H4584.09H4584.22H4584.34H4584.46H4584.59H4584.71H4584.83H4584.96H4585.08H4585.21H4585.33H4585.45H4585.58H4585.7H4585.83H4585.95H4586.08H4586.2H4586.33H4586.45H4586.58H4586.71H4586.83H4586.96H4587.08H4587.21H4587.34H4587.46H4587.59H4587.72H4587.84H4587.97H4588.1H4588.22H4588.35H4588.48H4588.6H4588.73H4588.86H4588.99H4589.11H4589.24H4589.37H4589.5H4589.62H4589.75H4589.88H4590.01H4590.14H4590.26H4590.39H4590.52H4590.65H4590.78H4590.91H4591.03H4591.16H4591.29H4591.42H4591.55H4591.68H4591.81H4591.93H4592.06H4592.19H4592.32H4592.45H4592.58H4592.71H4592.84H4592.96H4593.09H4593.22H4593.35H4593.48H4593.61H4593.74H4593.87H4593.99H4594.12H4594.25H4594.38H4594.51H4594.64H4594.77H4594.89H4595.02H4595.15H4595.28H4595.41H4595.54H4595.66H4595.79H4595.92H4596.05H4596.18H4596.31H4596.43H4596.56H4596.69H4596.82H4596.95H4597.07H4597.2H4597.33H4597.46H4597.58H4597.71H4597.84H4597.97H4598.09H4598.22H4598.35H4598.47H4598.6H4598.73H4598.85H4598.98H4599.11H4599.23H4599.36H4599.48H4599.61H4599.74H4599.86H4599.99H4600.11H4600.24H4600.36H4600.49H4600.61H4600.74H4600.86H4600.99H4601.11H4601.24H4601.36H4601.48H4601.61H4601.73H4601.85H4601.98H4602.1H4602.22H4602.35H4602.47H4602.59H4602.71H4602.84H4602.96H4603.08H4603.2H4603.32H4603.44H4603.57H4603.69H4603.81H4603.93H4604.05H4604.17H4604.29H4604.41H4604.53H4604.65H4604.76H4604.88H4605H4605.12H4605.24H4605.36H4605.47H4605.59H4605.71H4605.83H4605.94H4606.06H4606.18H4606.29H4606.41H4606.52H4606.64H4606.75H4606.87H4606.98H4607.1H4607.21H4607.33H4607.44H4607.55H4607.67H4607.78H4607.89H4608H4608.11H4608.23H4608.34H4608.45H4608.56H4608.67H4608.78H4608.89H4609H4609.11H4609.22H4609.33H4609.43H4609.54H4609.65H4609.76H4609.87H4609.97H4610.08H4610.18H4610.29H4610.4H4610.5H4610.61H4610.71H4610.82H4610.92H4611.02H4611.13H4611.23H4611.33H4611.43H4611.53H4611.64H4611.74H4611.84H4611.94H4612.04H4612.14H4612.24H4612.34H4612.43H4612.53H4612.63H4612.73H4612.83H4612.92H4613.02H4613.11H4613.21H4613.3H4613.4H4613.49H4613.59H4613.68H4613.77H4613.87H4613.96H4614.05H4614.14H4614.23H4614.32H4614.41H4614.5H4614.59H4614.68H4614.77H4614.86H4614.95H4615.03H4615.12H4615.21H4615.29H4615.38H4615.46H4615.55H4615.63H4615.71H4615.8H4615.88H4615.96H4616.04H4616.12H4616.2H4616.29H4616.36H4616.44H4616.52H4616.6H4616.68H4616.76H4616.83H4616.91H4616.99H4617.06H4617.14H4617.21H4617.28H4617.36H4617.43H4617.5H4617.58H4617.65H4617.72H4617.79H4617.86H4617.93H4618H4618.06H4618.13H4618.2H4618.27H4618.33H4618.4H4618.46H4618.53H4618.59H4618.65H4618.72H4618.78H4618.84H4618.9H4618.96H4619.02H4619.08H4619.14H4619.2H4619.26H4619.31H4619.37H4619.43H4619.48H4619.54H4619.59H4619.65H4619.7H4619.75H4619.8H4619.85H4619.91H4619.96H4619.98C4619.79 1466.71 4619.67 1465.74 4619.58 1464.62C4619.39 1462.15 4619.37 1458.77 4619.45 1455.04C4619.63 1447.73 4620.2 1418.99 4620.69 1413.03L4613.46 1402.92L4613.29 1402.67L4613.28 1402.37L4605.84 1079.62L4605.83 1079.29L4606.02 1079.02C4609.08 1074.74 4612.38 1072.08 4615.75 1070.68C4619.12 1069.27 4622.48 1069.13 4625.63 1069.77C4631.87 1071.05 4637.26 1075.38 4640.32 1078.95L4640.53 1079.19L4640.55 1079.51C4644.13 1122.41 4642.04 1316.63 4640.56 1408.31L4640.56 1408.36L4640.55 1408.4L4636.21 1467.46H4688.61L4672.89 1413.17L4672.79 1412.95L4672.8 1412.72L4678.75 1259.52L4678.75 1259.43L4678.77 1259.35C4691.16 1203.36 4717.16 1087.39 4721.94 1071.87C4723.17 1067.87 4726.06 1062.46 4729.87 1056.39C4733.69 1050.3 4738.49 1043.46 4743.59 1036.58C4753.8 1022.81 4765.27 1008.81 4772.72 1000.12L4772.77 1000.07L4772.82 1000.03C4815.46 962.139 4830.01 927.106 4832 914.436C4831.01 867.833 4829.3 796.272 4827.39 732.931C4825.48 669.51 4823.37 614.426 4821.59 600.806C4820.72 594.124 4817.57 585.52 4812.97 575.92C4808.38 566.339 4802.37 555.84 4795.85 545.391C4782.8 524.493 4767.72 503.849 4757.82 491.228L4757.61 490.959V490.616V475.743V475.292L4757.95 474.995C4789.99 447.114 4807.25 421.577 4815.82 401.033C4824.1 381.184 4824.26 366.048 4821.9 357.93C4799.31 363.217 4776.73 375.611 4758.96 387.332C4744.6 396.8 4733.47 405.766 4728.01 410.171L4728 410.172C4726.61 411.293 4725.59 412.118 4724.97 412.582C4723.76 413.488 4722.75 414.04 4721.9 414.16C4721.45 414.224 4720.97 414.174 4720.55 413.905C4720.13 413.637 4719.9 413.236 4719.78 412.863C4719.57 412.169 4719.66 411.329 4719.81 410.626C4719.96 409.88 4720.22 409.103 4720.48 408.446L4720.58 408.185L4720.81 408.018C4742.84 391.69 4777.76 362.206 4810.88 326.854C4844.02 291.488 4875.28 250.329 4890.09 210.654C4904.89 171 4905.28 128.917 4899.71 92.3871C4894.82 60.252 4885.33 32.4684 4877.08 14.5004C4886.24 64.1778 4884.98 110.263 4883.08 127.817L4881.17 128.06C4856.02 61.4026 4805.42 24.0746 4778.03 10.9624C4821.25 47.5063 4845.69 84.2598 4857.51 118.861C4869.81 154.884 4868.4 188.509 4860.36 217.033C4852.32 245.545 4837.63 268.965 4823.36 284.617C4816.22 292.44 4809.16 298.35 4803.05 301.983C4800 303.799 4797.15 305.065 4794.63 305.704C4792.12 306.341 4789.83 306.381 4787.98 305.618C4777.6 301.348 4770.63 293.603 4766.14 285.708C4761.67 277.849 4759.62 269.786 4759.1 264.696C4746.63 205.328 4728.2 162.568 4710.25 133.248C4694.97 108.282 4680.07 93.1012 4669.53 85.6826C4692.85 114.961 4732.81 184.449 4732.81 264.544V265.201L4732.2 265.457C4724.25 268.82 4714.86 269.426 4704.95 268.238C4695.03 267.049 4684.52 264.057 4674.29 260.153C4655.5 252.984 4637.53 242.705 4625.65 234.71C4632.78 248.114 4655.54 273.645 4702.36 288.886C4727.98 297.223 4743.07 303.943 4751.52 308.981C4755.73 311.495 4758.36 313.628 4759.82 315.382C4761.21 317.063 4761.81 318.783 4760.91 320.125L4760.86 320.206L4760.79 320.276L4698.3 382.743L4697.2 383.836L4696.66 382.387L4679.24 335.502V401.377V402.369H4678.25H4609.81H4609.04L4608.85 401.627C4606.04 390.863 4601.38 364.473 4603.8 340.459C4599.39 348.022 4592.85 360.18 4589.92 368.97C4589.78 369.39 4589.61 369.81 4589.39 370.099C4589.3 370.223 4589.05 370.526 4588.61 370.6C4588.05 370.693 4587.68 370.362 4587.52 370.155C4587.37 369.96 4587.29 369.741 4587.24 369.585C4587.19 369.413 4587.15 369.22 4587.11 369.019C4587.05 368.617 4587 368.108 4586.96 367.513C4586.81 365.139 4586.85 361.011 4587.01 355.635C4587.34 344.862 4588.17 328.906 4589.1 311.527L4589.3 307.786V307.784C4591.12 273.87 4593.16 235.685 4592.45 219.969L4592.42 219.251L4593.09 218.997C4610.4 212.449 4645.91 182.142 4651.49 112.773C4645.88 128.48 4636.89 149.1 4625.64 166.947C4619.12 177.284 4611.82 186.728 4603.94 193.748C4596.08 200.764 4587.56 205.424 4578.63 206.04L4578.49 206.05L4578.35 206.019C4576.41 205.588 4574.02 204.005 4571.38 201.66C4568.7 199.281 4565.64 195.999 4562.33 191.979C4555.71 183.935 4548.06 172.864 4540.54 159.964C4526.43 135.741 4512.72 104.969 4507.14 75.5473C4503.48 103.462 4510.3 164.872 4564.43 226.708L4564.63 226.941L4564.67 227.248C4566.66 244.65 4567.85 271.429 4564.96 295.228C4563.52 307.124 4561.05 318.33 4557.11 327.262C4553.18 336.181 4547.72 342.976 4540.22 345.787C4535.52 347.549 4529.32 347.687 4522.21 346.336C4515.09 344.981 4506.97 342.116 4498.37 337.773C4481.18 329.086 4462.01 314.451 4445 293.994C4411.98 254.273 4387.1 192.595 4400.66 109.879C4385.46 146.441 4372.2 229.328 4423.19 319.085L4423.75 320.068L4422.71 320.493C4406.38 327.123 4365.64 320.114 4326.95 245.544C4330.13 276.122 4354.52 333.773 4432.98 352.82C4444.09 355.515 4454.5 358.009 4464.25 360.344L4464.25 360.344C4500.2 368.95 4527.12 375.397 4546.33 381.846C4558.54 385.946 4567.73 390.075 4574.15 394.816C4580.61 399.579 4584.32 404.991 4585.49 411.616L4585.5 411.702V411.788C4585.5 416.458 4580.73 424.951 4563.75 426.163L4563.24 426.2L4562.91 425.801C4552.2 412.657 4520.64 386.427 4479.85 386.013C4479.83 402.098 4491.04 439.976 4537.43 468.953L4537.72 469.139L4537.84 469.47C4542.55 483.071 4536.93 514.934 4480.73 537.642L4480.71 537.65L4480.69 537.657C4477.29 538.873 4472.42 541.202 4468.88 544.21C4465.28 547.258 4463.39 550.658 4464.9 554.181C4465.95 556.63 4468.28 559.784 4471.3 563.238C4474.29 566.671 4477.9 570.321 4481.42 573.754C4483.75 576.022 4486.04 578.183 4488.09 580.122L4488.09 580.123C4489.14 581.122 4490.14 582.062 4491.04 582.927C4492.37 584.195 4493.51 585.305 4494.37 586.195C4494.8 586.639 4495.16 587.039 4495.45 587.381C4495.73 587.707 4495.98 588.038 4496.13 588.336C4496.84 589.753 4496.96 591.207 4497.08 592.656C4497.1 592.942 4497.13 593.229 4497.16 593.515C4497.33 595.293 4497.68 597.398 4499.1 600.235C4500.44 602.91 4502.41 604.237 4505.15 604.922C4507.98 605.629 4511.56 605.636 4516.07 605.636C4518.25 605.636 4524.33 605.177 4532.38 604.524C4534.59 604.344 4536.95 604.151 4539.4 603.949L4539.42 603.948C4545.86 603.418 4553.01 602.831 4560.07 602.292C4569.84 601.549 4579.48 600.897 4586.96 600.617C4590.7 600.477 4593.92 600.43 4596.35 600.512C4597.57 600.553 4598.61 600.628 4599.43 600.744C4599.84 600.802 4600.21 600.872 4600.53 600.961C4600.84 601.045 4601.16 601.162 4601.43 601.34C4603.69 602.847 4620.09 614.399 4636.49 628.559C4644.7 635.639 4652.92 643.39 4659.38 650.878C4665.81 658.328 4670.62 665.658 4671.79 671.887L4671.85 672.214L4671.7 672.513C4671.49 672.936 4671.14 673.236 4670.7 673.383C4670.29 673.519 4669.87 673.508 4669.5 673.444C4668.75 673.319 4667.88 672.936 4666.95 672.419C4665.06 671.372 4662.57 669.574 4659.73 667.315C4654.02 662.785 4646.68 656.257 4639.39 649.756L4638.57 649.027C4631.54 642.76 4624.62 636.587 4619.26 632.265C4616.46 630.015 4614.14 628.302 4612.46 627.339C4611.61 626.848 4611.02 626.606 4610.66 626.541L4610.65 626.539C4601.76 650.218 4594.59 667.116 4571.22 677.422C4547.94 687.683 4508.66 691.382 4435.7 689.421C4297.32 685.703 4201.05 687.193 4130.47 697.22C4059.91 707.243 4015.1 725.784 3979.58 756.113L3979.57 756.126L3979.55 756.138C3963.54 768.744 3934 812.979 3945.6 888.447C3946.15 888.484 3946.95 888.195 3948.11 887.231C3949.55 886.025 3951.22 884.023 3953.04 881.406C3956.68 876.188 3960.76 868.774 3964.74 861.133C3966.65 857.459 3968.56 853.709 3970.36 850.141C3972.29 846.346 3974.11 842.758 3975.73 839.688C3977.3 836.694 3978.72 834.132 3979.9 832.275C3980.49 831.349 3981.03 830.571 3981.52 829.995C3981.77 829.708 3982.02 829.451 3982.27 829.247C3982.31 829.213 3982.35 829.179 3982.4 829.145L3982.41 828.224L3984.39 828.252L3981.42 1036.48L3981.42 1036.54L3981.41 1036.6C3977.89 1062.2 3952.3 1120.81 3878.17 1151.89C3872.57 1154.57 3864.29 1160.06 3857.72 1167.8C3851.15 1175.54 3846.35 1185.45 3847.5 1196.99C3847.89 1200.9 3846.92 1206.98 3844.98 1214.54C3843.04 1222.15 3840.08 1231.38 3836.43 1241.65C3829.12 1262.2 3818.97 1287 3808.37 1311.45C3787.24 1360.17 3764.24 1407.67 3758.15 1417.63L3743.72 1462.33H3816.91C3815.19 1456.62 3812.79 1448.37 3810.78 1440.71C3809.69 1436.58 3808.71 1432.61 3808 1429.3C3807.5 1426.99 3807.13 1424.95 3806.95 1423.38L3806.87 1423.41C3806.78 1423.06 3806.8 1422.62 3806.85 1422.21C3806.84 1422.02 3806.84 1421.84 3806.84 1421.68H3806.93C3807 1421.23 3807.11 1420.7 3807.25 1420.1C3807.6 1418.58 3808.16 1416.53 3808.91 1414.03C3810.41 1409.05 3812.69 1402.24 3815.61 1394.17C3821.46 1378.05 3829.88 1356.87 3839.85 1335.19C3849.81 1313.5 3861.32 1291.28 3873.33 1273.07C3885.31 1254.91 3897.9 1240.57 3910.07 1234.87C3926.66 1227.09 3954.47 1206.72 3982.48 1184.13C4010.46 1161.56 4038.54 1136.86 4055.62 1120.52L4056.31 1121.24L4055.99 1120.3C4124.75 1096.6 4169.61 1043.25 4183.41 1019.6L4185.26 1020.2C4182.74 1046.31 4154.15 1113.37 4060.38 1175.25C4067.52 1212.82 4096.25 1311.19 4155.36 1409.27L4155.5 1409.5V1409.78V1465.97H4238.28C4204.4 1434.1 4141.07 1327.21 4144.59 1219.37L4144.61 1218.83L4145.07 1218.55C4182.21 1196.28 4269.57 1133.3 4321.83 1059.69L4322.39 1058.9L4323.19 1059.43C4348.31 1076.17 4417.91 1104.11 4494.91 1081.63Z" fill="white" stroke="white" stroke-width="10"/>
</svg>
