<svg width="27" height="27" viewBox="0 0 27 27" fill="none" xmlns="http://www.w3.org/2000/svg">
<path fill-rule="evenodd" clip-rule="evenodd" d="M4.95191 4.95196C0.210463 9.69341 0.210463 17.3808 4.95191 22.1223C9.69335 26.8637 17.3808 26.8637 22.1222 22.1223C26.8636 17.3808 26.8636 9.69341 22.1222 4.95196C17.3808 0.210518 9.69335 0.210519 4.95191 4.95196ZM4.43441 4.43446C-0.592841 9.46172 -0.592841 17.6125 4.43441 22.6398C9.46166 27.667 17.6124 27.667 22.6397 22.6398C27.6669 17.6125 27.6669 9.46172 22.6397 4.43447C17.6124 -0.592786 9.46166 -0.592786 4.43441 4.43446Z" fill="white" fill-opacity="0.52"/>
<path fill-rule="evenodd" clip-rule="evenodd" d="M13.5371 18.5726L9.27626 13.8222L9.72728 13.3193L13.2182 17.2113L13.2182 9.27629L13.856 9.27629L13.856 17.2113L17.3469 13.3193L17.7979 13.8222L13.5371 18.5726Z" fill="white" fill-opacity="0.52"/>
</svg>
